<svg xmlns="http://www.w3.org/2000/svg" viewBox="0 0 100 100"><g fill="#211E19"><path d="M27.5 28.5L30.2 32.1L32.9 35.7L35.6 39.3L38.4 42.7L41.3 46.1L44.4 49.3L47.5 52.5L50.8 55.5L54.1 58.5L57.5 61.4L60.8 64.3L64.3 67.2L67.7 70.0L71.3 72.7L72.7 71.3L70.0 67.7L67.2 64.3L64.3 60.8L61.4 57.5L58.5 54.1L55.5 50.8L52.5 47.5L49.3 44.4L46.1 41.3L42.7 38.4L39.3 35.6L35.7 32.9L32.1 30.2L28.5 27.5Z"/><path d="M71.6 27.6L68.0 30.3L64.5 33.0L60.8 35.7L57.3 38.4L53.8 41.2L50.5 44.2L47.4 47.4L44.4 50.7L41.5 54.1L38.7 57.6L35.9 61.0L33.0 64.4L30.1 67.8L27.3 71.3L28.7 72.7L32.2 69.9L35.6 67.0L39.0 64.1L42.4 61.3L45.9 58.5L49.3 55.6L52.6 52.6L55.8 49.5L58.8 46.2L61.6 42.7L64.3 39.2L67.0 35.5L69.7 32.0L72.4 28.4Z"/></g></svg>