<svg xmlns="http://www.w3.org/2000/svg" viewBox="0 0 100 100"><g fill="#211E19"><path d="M26.3 78.2L30.4 75.7L34.4 73.1L37.0 69.5L39.6 65.8L42.0 62.0L44.4 58.2L46.8 54.4L49.3 50.6L51.8 46.9L54.5 43.3L57.2 39.7L59.9 36.2L62.6 32.6L65.2 28.9L62.8 27.1L60.0 30.6L57.2 34.1L54.5 37.7L51.8 41.3L49.0 44.8L46.2 48.2L43.2 51.6L40.2 55.0L37.1 58.3L34.1 61.7L31.3 65.1L28.5 68.6L27.0 73.1L25.7 77.8Z"/><path d="M39.7 46.3L40.2 48.3L40.9 50.1L42.3 51.1L43.8 52.1L45.3 53.0L46.7 53.9L48.1 55.0L49.5 56.1L50.8 57.2L52.0 58.4L53.3 59.5L54.6 60.6L56.0 61.6L57.5 62.6L58.5 61.4L57.4 60.1L56.2 58.8L55.0 57.6L53.7 56.5L52.4 55.4L51.1 54.2L49.9 53.0L48.7 51.8L47.6 50.4L46.5 49.1L45.4 47.7L44.2 46.4L42.3 46.0L40.3 45.7Z"/></g></svg>